<?xml version="1.0" standalone="no"?>
<!DOCTYPE svg PUBLIC "-//W3C//DTD SVG 20010904//EN"
 "http://www.w3.org/TR/2001/REC-SVG-20010904/DTD/svg10.dtd">
<svg version="1.0" xmlns="http://www.w3.org/2000/svg"
 width="512.000000pt" height="512.000000pt" viewBox="0 0 512.000000 512.000000"
 preserveAspectRatio="xMidYMid meet">
<metadata>
Created by potrace 1.11, written by Peter Selinger 2001-2013
</metadata>
<g transform="translate(0.000000,512.000000) scale(0.100000,-0.100000)"
fill="#000000" stroke="none">
<path d="M0 2560 l0 -2560 423 0 424 0 6 272 c4 149 7 375 8 502 0 127 4 297
7 377 7 140 8 148 42 215 47 93 144 190 232 233 86 43 152 50 450 51 l238 0
31 -62 c71 -142 202 -285 330 -361 126 -74 306 -114 461 -103 296 22 528 178
660 445 l41 83 291 -4 c272 -5 295 -7 346 -27 127 -52 228 -151 289 -281 l30
-65 6 -455 c3 -250 8 -537 11 -637 l6 -183 394 0 394 0 0 2560 0 2560 -2560 0
-2560 0 0 -2560z m2482 2296 c237 -85 361 -140 473 -211 30 -19 62 -35 72 -35
10 0 65 41 123 91 115 99 140 115 166 105 12 -5 15 -13 10 -34 -25 -114 -65
-317 -62 -319 2 -2 44 3 94 10 153 23 192 2 115 -63 -47 -38 -46 -39 111 -80
201 -53 227 -61 233 -77 10 -25 -27 -47 -121 -77 -47 -15 -86 -28 -86 -30 0
-2 48 -37 108 -78 128 -91 150 -113 136 -136 -6 -9 -26 -20 -45 -25 l-34 -9
40 -34 c22 -19 102 -82 177 -142 76 -59 140 -115 144 -126 10 -30 -16 -44
-110 -55 -49 -6 -92 -13 -95 -17 -3 -3 54 -64 127 -134 130 -127 153 -162 117
-176 -9 -4 -80 17 -158 45 -78 28 -146 51 -150 51 -4 0 16 -34 44 -77 52 -76
75 -138 58 -149 -6 -3 -41 0 -80 6 -39 7 -73 10 -75 7 -3 -3 13 -73 35 -155
44 -162 49 -197 27 -205 -8 -3 -45 14 -83 38 -37 25 -71 45 -74 45 -4 0 -21
-35 -39 -77 -38 -88 -70 -129 -95 -120 -14 6 -15 28 -10 204 5 191 5 197 -12
166 -19 -37 -56 -45 -71 -15 -5 9 -21 65 -37 125 -15 59 -31 107 -36 107 -7 0
-27 -49 -106 -260 -24 -64 -32 -75 -53 -77 -22 -3 -39 18 -140 170 l-114 172
-12 -51 c-14 -64 -20 -74 -45 -74 -12 0 -39 27 -75 78 -32 42 -68 92 -82 111
l-25 33 -28 -45 c-15 -25 -60 -106 -100 -181 -98 -185 -112 -184 -160 9 -17
72 -35 133 -38 137 -7 8 -127 -131 -222 -255 -35 -46 -49 -57 -69 -55 -24 3
-27 12 -64 162 -38 157 -39 159 -57 138 -9 -12 -77 -129 -150 -258 -73 -130
-142 -248 -155 -263 -21 -24 -24 -25 -39 -10 -9 9 -27 54 -41 100 -13 45 -28
87 -32 91 -5 5 -26 -29 -47 -76 -38 -87 -51 -101 -76 -85 -10 6 -13 28 -11 86
2 88 3 88 -65 -11 -33 -46 -61 -58 -81 -33 -5 6 -13 76 -17 155 -8 163 0 153
-110 127 -80 -20 -121 -19 -129 1 -7 19 19 45 207 212 71 63 126 116 124 119
-3 2 -63 -7 -133 -21 -70 -14 -147 -26 -171 -26 -79 0 -59 26 127 165 94 70
168 130 166 132 -3 3 -59 -11 -125 -31 -132 -40 -169 -44 -178 -20 -6 17 7 35
142 203 50 62 91 118 93 125 3 15 -58 42 -220 95 -116 39 -147 61 -117 84 10
7 106 28 215 46 110 18 206 37 214 41 9 5 -26 21 -104 45 -90 29 -116 41 -112
52 3 8 6 20 6 27 0 9 90 25 308 56 169 24 309 45 311 47 7 5 -49 61 -116 115
-52 41 -63 55 -63 80 0 28 2 29 31 23 18 -4 69 -20 115 -35 46 -16 84 -27 84
-25 0 2 -45 38 -100 80 -99 75 -121 99 -113 123 8 20 48 15 304 -42 273 -61
419 -90 425 -83 2 2 -18 57 -45 122 -26 65 -46 126 -44 136 8 28 38 24 175
-25z m352 -1753 c31 -43 70 -94 87 -114 22 -26 32 -51 38 -91 20 -148 144
-233 263 -180 57 25 106 85 153 187 36 77 38 79 46 51 4 -16 24 -46 44 -66
l36 -37 -2 -147 -2 -147 39 -40 c21 -21 46 -39 55 -39 24 0 68 56 115 145 38
73 62 98 49 53 -19 -69 -71 -220 -92 -267 -63 -144 -261 -377 -400 -469 -318
-213 -701 -269 -1043 -152 -327 112 -565 334 -724 674 -31 65 -56 121 -56 123
0 3 11 -2 25 -11 33 -22 54 -10 91 49 16 25 31 45 34 45 3 0 28 -22 55 -50 27
-27 55 -50 62 -50 17 0 99 109 127 169 23 50 23 50 41 31 28 -30 115 -70 154
-70 48 1 112 31 140 66 12 16 43 65 69 109 58 98 153 218 164 207 5 -5 17 -38
27 -75 19 -69 56 -128 93 -148 46 -25 78 11 187 209 35 61 64 112 66 112 2 0
28 -35 59 -77z m-754 -1514 c95 -166 303 -279 514 -279 201 0 401 109 501 274
l40 65 58 1 c31 0 57 -3 57 -8 0 -4 -18 -39 -41 -77 -128 -220 -316 -336 -568
-352 -283 -18 -538 124 -681 380 l-32 57 59 0 58 -1 35 -60z"/>
<path d="M1456 818 c-14 -19 -16 -76 -16 -420 l0 -398 65 0 65 0 0 398 c0 445
0 442 -65 442 -24 0 -39 -7 -49 -22z"/>
<path d="M3627 822 c-15 -17 -17 -61 -17 -420 l0 -402 65 0 65 0 0 398 c0 387
-1 399 -20 420 -25 27 -71 29 -93 4z"/>
</g>
</svg>
